<svg xmlns="http://www.w3.org/2000/svg" viewBox="330 220 170 170" fill="currentColor">
  <rect x="448.334" y="268.417" fill="currentColor" width="16.5" height="94"/>
  <rect x="370.834" y="345.917" fill="currentColor" width="94" height="16.5"/>
  <polygon fill="currentColor" points="464.834,242.854 430.125,242.854 430.125,242.813 413.625,242.813 413.625,242.854 
    413.625,259.354 413.625,277.539 395.416,277.539 395.416,277.497 378.916,277.497 378.916,277.539 378.916,294.039 
    378.916,312.188 360.754,312.188 360.754,312.146 344.254,312.146 344.254,312.188 344.254,328.688 344.254,363.354 
    360.754,363.354 360.754,328.688 378.916,328.688 378.916,328.706 395.416,328.706 395.416,328.688 395.463,328.688 
    395.463,312.188 395.416,312.188 395.416,294.039 430.125,294.039 430.125,294.021 430.125,277.539 430.125,259.354 
    464.834,259.354 "/>
</svg>