<svg xmlns="http://www.w3.org/2000/svg" viewBox="411 230 140 140" fill="currentColor">
  <path d="M481.88,260.792c-6.319,0-12.337,1.279-17.813,3.595h0.004l5.21,5.76c3.946-1.366,8.188-2.107,12.599-2.107
    c21.271,0,38.515,17.245,38.515,38.515c0,21.271-17.244,38.516-38.515,38.516s-38.515-17.245-38.515-38.516
    c0-4.394,0.736-8.618,2.095-12.553h-0.004l-5.743-5.255l-0.005-0.004c-2.312,5.475-3.591,11.493-3.591,17.812
    c0,25.274,20.488,45.763,45.763,45.763s45.763-20.488,45.763-45.763C527.643,281.28,507.154,260.792,481.88,260.792z"/>
  <path d="M481.88,274.666c-3.636,0-7.132,0.609-10.387,1.731l-0.381,3.93l2.771,2.916
    c2.505-0.861,5.198-1.329,7.997-1.329c13.609,0,24.641,11.033,24.641,24.641c0,13.609-11.031,24.641-24.641,24.641
    s-24.641-11.031-24.641-24.641c0-2.906,0.505-5.698,1.428-8.287l-2.208-2.187h-4.708c-1.139,3.28-1.76,6.805-1.76,10.474
    c0,17.613,14.275,31.889,31.889,31.889s31.889-14.275,31.889-31.889S499.493,274.666,481.88,274.666z"/>
  <path d="M481.88,289.044c-0.877,0-1.74,0.063-2.58,0.191l8.718,9.169l0.004,0.004
    c1.027,0.741,1.909,1.669,2.602,2.731c0.009,0.005,0.009,0.01,0.009,0.019c1.072,1.635,1.692,3.595,1.692,5.693
    c0,5.77-4.676,10.445-10.444,10.445c-3.064,0-5.819-1.317-7.728-3.422h-0.005l-9.864-9.756c-0.142,0.89-0.212,1.801-0.212,2.732
    c0,9.836,7.974,17.81,17.809,17.81s17.809-7.974,17.809-17.81S491.715,289.044,481.88,289.044z"/>
  <path d="M484.261,305.246l-20.189-20.189V276l-9.731-10.561c0,0-2.968-2.416-4.349,1.449v4.088l-5.348-5.347
    c-1.016-1.016-2.626-1.053-3.597-0.082l-0.731,0.732c-0.971,0.971-0.933,2.58,0.082,3.596l5.339,5.34l-4.235-0.043
    c0,0-2.192,0-1.891,3.658l10.933,10.215h9.023l20.448,20.449c1.017,1.016,2.626,1.053,3.597,0.082l0.732-0.732
    C485.313,307.873,485.277,306.262,484.261,305.246z"/>
</svg>